<svg width="240" height="152" viewBox="0 0 240 152" fill="none" xmlns="http://www.w3.org/2000/svg">
<g clip-path="url(#clip0_84_102)">
<path d="M109.579 80.0908C110.559 80.2207 108.561 80.0908 109.579 80.0908" stroke="#259EC9" stroke-width="3" stroke-miterlimit="10"/>
<path d="M148.786 109.571C136.728 106.12 115.497 78.7921 109.671 79.8867H109.579C119.658 73.95 127.666 61.6868 129.922 46.6222C133.436 23.6172 122.34 2.83853 105.14 0.241193C87.9402 -2.35615 71.1105 14.1184 67.6705 37.1234C65.1553 53.5794 70.1303 68.9223 79.4699 77.2894C72.0722 82.7067 55.8157 100.907 51.8949 105.879C47.2344 111.797 34.6768 119.441 66.6903 117.956C73.1398 117.529 79.557 116.705 85.9059 115.489C85.9059 115.489 128.35 141.165 165.431 149.05C202.512 156.935 240.111 114.617 240.111 114.617C184.129 118.569 173.735 118.995 148.786 109.571Z" fill="#E8C597"/>
<path fill-rule="evenodd" clip-rule="evenodd" d="M171.348 36.0573C188.562 38.7088 199.662 59.5032 196.141 82.5028C192.62 105.502 175.812 121.998 158.599 119.346C141.386 116.695 130.285 95.9003 133.806 72.9007C137.327 49.9011 154.135 33.4057 171.348 36.0573ZM58.3494 151.796C20.5286 149.978 0 84.6547 0 84.6547C5.18683 87.7684 9.99224 90.7461 14.5044 93.542C42.5233 110.904 59.2334 121.258 85.7394 113.652L142.646 142.39C142.646 142.39 96.1702 153.614 58.3494 151.796Z" fill="url(#paint0_linear_84_102)"/>
</g>
<defs>
<linearGradient id="paint0_linear_84_102" x1="0" y1="93.6029" x2="196.792" y2="93.6029" gradientUnits="userSpaceOnUse">
<stop stop-color="#92A9D8"/>
<stop offset="1" stop-color="#B9AAD1"/>
</linearGradient>
<clipPath id="clip0_84_102">
<rect width="240" height="152" fill="white"/>
</clipPath>
</defs>
</svg>
